<mxfile host="app.diagrams.net" agent="Mozilla/5.0 (Windows NT 10.0; Win64; x64; rv:130.0) Gecko/20100101 Firefox/130.0" version="24.7.12">
  <diagram name="Página-1" id="x6aFmOUeKIvnNt9eIF3s">
    <mxGraphModel dx="874" dy="508" grid="1" gridSize="10" guides="1" tooltips="1" connect="1" arrows="1" fold="1" page="1" pageScale="1" pageWidth="827" pageHeight="1169" math="0" shadow="0">
      <root>
        <mxCell id="0" />
        <mxCell id="1" parent="0" />
        <mxCell id="GLX7JuzLJq6c7QRxQG33-4" value="" style="edgeStyle=orthogonalEdgeStyle;rounded=0;orthogonalLoop=1;jettySize=auto;html=1;" edge="1" parent="1" source="GLX7JuzLJq6c7QRxQG33-1" target="GLX7JuzLJq6c7QRxQG33-3">
          <mxGeometry relative="1" as="geometry" />
        </mxCell>
        <mxCell id="GLX7JuzLJq6c7QRxQG33-11" style="edgeStyle=orthogonalEdgeStyle;rounded=0;orthogonalLoop=1;jettySize=auto;html=1;" edge="1" parent="1" source="GLX7JuzLJq6c7QRxQG33-1" target="GLX7JuzLJq6c7QRxQG33-8">
          <mxGeometry relative="1" as="geometry" />
        </mxCell>
        <mxCell id="GLX7JuzLJq6c7QRxQG33-1" value="Clientes" style="rounded=0;whiteSpace=wrap;html=1;" vertex="1" parent="1">
          <mxGeometry x="443" y="115" width="120" height="50" as="geometry" />
        </mxCell>
        <mxCell id="GLX7JuzLJq6c7QRxQG33-2" value="&lt;div&gt;Esteban Gesto&lt;/div&gt;&lt;div&gt;Karim Hallar&lt;br&gt;&lt;/div&gt;Osiris Sofia" style="text;html=1;align=center;verticalAlign=middle;whiteSpace=wrap;rounded=0;" vertex="1" parent="1">
          <mxGeometry x="438" y="70" width="130" height="30" as="geometry" />
        </mxCell>
        <mxCell id="GLX7JuzLJq6c7QRxQG33-9" value="" style="edgeStyle=orthogonalEdgeStyle;rounded=0;orthogonalLoop=1;jettySize=auto;html=1;" edge="1" parent="1" source="GLX7JuzLJq6c7QRxQG33-3" target="GLX7JuzLJq6c7QRxQG33-8">
          <mxGeometry relative="1" as="geometry" />
        </mxCell>
        <mxCell id="GLX7JuzLJq6c7QRxQG33-13" value="" style="edgeStyle=orthogonalEdgeStyle;rounded=0;orthogonalLoop=1;jettySize=auto;html=1;" edge="1" parent="1" source="GLX7JuzLJq6c7QRxQG33-3" target="GLX7JuzLJq6c7QRxQG33-12">
          <mxGeometry relative="1" as="geometry">
            <Array as="points">
              <mxPoint x="323" y="310" />
              <mxPoint x="123" y="310" />
            </Array>
          </mxGeometry>
        </mxCell>
        <mxCell id="GLX7JuzLJq6c7QRxQG33-17" style="edgeStyle=orthogonalEdgeStyle;rounded=0;orthogonalLoop=1;jettySize=auto;html=1;" edge="1" parent="1" source="GLX7JuzLJq6c7QRxQG33-3" target="GLX7JuzLJq6c7QRxQG33-16">
          <mxGeometry relative="1" as="geometry" />
        </mxCell>
        <mxCell id="GLX7JuzLJq6c7QRxQG33-22" style="edgeStyle=orthogonalEdgeStyle;rounded=0;orthogonalLoop=1;jettySize=auto;html=1;" edge="1" parent="1" source="GLX7JuzLJq6c7QRxQG33-3" target="GLX7JuzLJq6c7QRxQG33-21">
          <mxGeometry relative="1" as="geometry">
            <Array as="points">
              <mxPoint x="323" y="310" />
              <mxPoint x="520" y="310" />
            </Array>
          </mxGeometry>
        </mxCell>
        <mxCell id="GLX7JuzLJq6c7QRxQG33-3" value="Grupo T-Code&lt;br&gt;(Administración)" style="rounded=0;whiteSpace=wrap;html=1;" vertex="1" parent="1">
          <mxGeometry x="263" y="235" width="120" height="50" as="geometry" />
        </mxCell>
        <mxCell id="GLX7JuzLJq6c7QRxQG33-5" value="&lt;div&gt;Agustín Collareda&lt;/div&gt;&lt;div&gt;Cintia Hernandez&lt;/div&gt;&lt;div&gt;Hugo Frey&lt;br&gt;&lt;/div&gt;" style="text;html=1;align=center;verticalAlign=middle;whiteSpace=wrap;rounded=0;" vertex="1" parent="1">
          <mxGeometry x="743" y="245" width="120" height="30" as="geometry" />
        </mxCell>
        <mxCell id="GLX7JuzLJq6c7QRxQG33-8" value="Documentador / Analista" style="rounded=0;whiteSpace=wrap;html=1;" vertex="1" parent="1">
          <mxGeometry x="623" y="235" width="120" height="50" as="geometry" />
        </mxCell>
        <mxCell id="GLX7JuzLJq6c7QRxQG33-28" style="edgeStyle=orthogonalEdgeStyle;rounded=0;orthogonalLoop=1;jettySize=auto;html=1;" edge="1" parent="1" source="GLX7JuzLJq6c7QRxQG33-12" target="GLX7JuzLJq6c7QRxQG33-26">
          <mxGeometry relative="1" as="geometry">
            <Array as="points">
              <mxPoint x="123" y="480" />
              <mxPoint x="323" y="480" />
            </Array>
          </mxGeometry>
        </mxCell>
        <mxCell id="GLX7JuzLJq6c7QRxQG33-12" value="Resp. Verificación" style="rounded=0;whiteSpace=wrap;html=1;" vertex="1" parent="1">
          <mxGeometry x="63" y="355" width="120" height="50" as="geometry" />
        </mxCell>
        <mxCell id="GLX7JuzLJq6c7QRxQG33-14" value="&lt;div&gt;Agustín Collareda&lt;/div&gt;" style="text;html=1;align=center;verticalAlign=middle;whiteSpace=wrap;rounded=0;" vertex="1" parent="1">
          <mxGeometry x="4" y="320" width="110" height="30" as="geometry" />
        </mxCell>
        <mxCell id="GLX7JuzLJq6c7QRxQG33-27" style="edgeStyle=orthogonalEdgeStyle;rounded=0;orthogonalLoop=1;jettySize=auto;html=1;" edge="1" parent="1" source="GLX7JuzLJq6c7QRxQG33-16" target="GLX7JuzLJq6c7QRxQG33-26">
          <mxGeometry relative="1" as="geometry" />
        </mxCell>
        <mxCell id="GLX7JuzLJq6c7QRxQG33-16" value="Resp. Calidad" style="rounded=0;whiteSpace=wrap;html=1;" vertex="1" parent="1">
          <mxGeometry x="263" y="355" width="120" height="50" as="geometry" />
        </mxCell>
        <mxCell id="GLX7JuzLJq6c7QRxQG33-18" value="&lt;div&gt;Cintia Hernandez&lt;/div&gt;&lt;div&gt;Hugo Frey&lt;br&gt;&lt;/div&gt;" style="text;html=1;align=center;verticalAlign=middle;whiteSpace=wrap;rounded=0;" vertex="1" parent="1">
          <mxGeometry x="210" y="320" width="110" height="30" as="geometry" />
        </mxCell>
        <mxCell id="GLX7JuzLJq6c7QRxQG33-29" style="edgeStyle=orthogonalEdgeStyle;rounded=0;orthogonalLoop=1;jettySize=auto;html=1;" edge="1" parent="1" source="GLX7JuzLJq6c7QRxQG33-21" target="GLX7JuzLJq6c7QRxQG33-26">
          <mxGeometry relative="1" as="geometry">
            <Array as="points">
              <mxPoint x="520" y="480" />
              <mxPoint x="323" y="480" />
            </Array>
          </mxGeometry>
        </mxCell>
        <mxCell id="GLX7JuzLJq6c7QRxQG33-21" value="Resp. Calidad" style="rounded=0;whiteSpace=wrap;html=1;" vertex="1" parent="1">
          <mxGeometry x="460" y="355" width="120" height="50" as="geometry" />
        </mxCell>
        <mxCell id="GLX7JuzLJq6c7QRxQG33-23" value="&lt;div&gt;Hugo Frey&lt;br&gt;&lt;/div&gt;" style="text;html=1;align=center;verticalAlign=middle;whiteSpace=wrap;rounded=0;" vertex="1" parent="1">
          <mxGeometry x="438" y="320" width="80" height="30" as="geometry" />
        </mxCell>
        <mxCell id="GLX7JuzLJq6c7QRxQG33-32" style="edgeStyle=orthogonalEdgeStyle;rounded=0;orthogonalLoop=1;jettySize=auto;html=1;" edge="1" parent="1" source="GLX7JuzLJq6c7QRxQG33-26" target="GLX7JuzLJq6c7QRxQG33-31">
          <mxGeometry relative="1" as="geometry" />
        </mxCell>
        <mxCell id="GLX7JuzLJq6c7QRxQG33-26" value="&lt;div&gt;Diseñador de&amp;nbsp;&lt;/div&gt;&lt;div&gt;Interfaz de Usuario&lt;/div&gt;" style="rounded=0;whiteSpace=wrap;html=1;" vertex="1" parent="1">
          <mxGeometry x="263" y="510" width="120" height="50" as="geometry" />
        </mxCell>
        <mxCell id="GLX7JuzLJq6c7QRxQG33-30" value="&lt;div&gt;Agustín Collareda&lt;/div&gt;&lt;div&gt;Cintia Hernandez&lt;/div&gt;" style="text;html=1;align=center;verticalAlign=middle;whiteSpace=wrap;rounded=0;" vertex="1" parent="1">
          <mxGeometry x="143" y="520" width="120" height="30" as="geometry" />
        </mxCell>
        <mxCell id="GLX7JuzLJq6c7QRxQG33-31" value="Analistas / Implementadores" style="rounded=0;whiteSpace=wrap;html=1;" vertex="1" parent="1">
          <mxGeometry x="518" y="510" width="120" height="50" as="geometry" />
        </mxCell>
        <mxCell id="GLX7JuzLJq6c7QRxQG33-33" value="&lt;div&gt;Agustín Collareda&lt;/div&gt;&lt;div&gt;Cintia Hernandez&lt;/div&gt;&lt;div&gt;Hugo Frey&lt;br&gt;&lt;/div&gt;" style="text;html=1;align=center;verticalAlign=middle;whiteSpace=wrap;rounded=0;" vertex="1" parent="1">
          <mxGeometry x="153" y="255" width="120" height="30" as="geometry" />
        </mxCell>
        <mxCell id="GLX7JuzLJq6c7QRxQG33-34" value="&lt;div&gt;Agustín Collareda&lt;/div&gt;&lt;div&gt;Cintia Hernandez&lt;/div&gt;&lt;div&gt;Hugo Frey&lt;br&gt;&lt;/div&gt;" style="text;html=1;align=center;verticalAlign=middle;whiteSpace=wrap;rounded=0;" vertex="1" parent="1">
          <mxGeometry x="648" y="530" width="120" height="30" as="geometry" />
        </mxCell>
      </root>
    </mxGraphModel>
  </diagram>
</mxfile>
